<mxfile host="app.diagrams.net" modified="2023-05-24T21:17:23.811Z" agent="Mozilla/5.0 (Windows NT 10.0; Win64; x64) AppleWebKit/537.36 (KHTML, like Gecko) Chrome/113.0.0.0 Safari/537.36" etag="Um898QqH2il12p-H8QZX" version="21.3.3" type="google">
  <diagram name="Page-1" id="7r7eiQQGcGEC403mIez5">
    <mxGraphModel grid="1" page="1" gridSize="10" guides="1" tooltips="1" connect="1" arrows="1" fold="1" pageScale="1" pageWidth="850" pageHeight="1100" math="0" shadow="0">
      <root>
        <mxCell id="0" />
        <mxCell id="1" parent="0" />
        <mxCell id="9sW0dZSRxw7xnkAIxx0Z-10" value="" style="edgeStyle=orthogonalEdgeStyle;rounded=0;orthogonalLoop=1;jettySize=auto;html=1;" edge="1" parent="1" source="9sW0dZSRxw7xnkAIxx0Z-1" target="9sW0dZSRxw7xnkAIxx0Z-9">
          <mxGeometry relative="1" as="geometry" />
        </mxCell>
        <mxCell id="9sW0dZSRxw7xnkAIxx0Z-1" value="Start" style="ellipse;whiteSpace=wrap;html=1;" vertex="1" parent="1">
          <mxGeometry x="220" y="13" width="120" height="40" as="geometry" />
        </mxCell>
        <mxCell id="9sW0dZSRxw7xnkAIxx0Z-14" value="" style="edgeStyle=orthogonalEdgeStyle;rounded=0;orthogonalLoop=1;jettySize=auto;html=1;" edge="1" parent="1" source="9sW0dZSRxw7xnkAIxx0Z-4" target="9sW0dZSRxw7xnkAIxx0Z-13">
          <mxGeometry relative="1" as="geometry" />
        </mxCell>
        <mxCell id="9sW0dZSRxw7xnkAIxx0Z-4" value="Ask for and collect length&lt;br&gt;store in L1" style="shape=parallelogram;perimeter=parallelogramPerimeter;whiteSpace=wrap;html=1;fixedSize=1;" vertex="1" parent="1">
          <mxGeometry x="50" y="129" width="192.5" height="40" as="geometry" />
        </mxCell>
        <mxCell id="9sW0dZSRxw7xnkAIxx0Z-11" value="" style="edgeStyle=orthogonalEdgeStyle;rounded=0;orthogonalLoop=1;jettySize=auto;html=1;" edge="1" parent="1" source="9sW0dZSRxw7xnkAIxx0Z-9" target="9sW0dZSRxw7xnkAIxx0Z-4">
          <mxGeometry relative="1" as="geometry">
            <Array as="points">
              <mxPoint x="146" y="83" />
            </Array>
          </mxGeometry>
        </mxCell>
        <mxCell id="9sW0dZSRxw7xnkAIxx0Z-9" value="Give directions" style="whiteSpace=wrap;html=1;" vertex="1" parent="1">
          <mxGeometry x="220" y="73" width="120" height="20" as="geometry" />
        </mxCell>
        <mxCell id="9sW0dZSRxw7xnkAIxx0Z-20" value="" style="edgeStyle=orthogonalEdgeStyle;rounded=0;orthogonalLoop=1;jettySize=auto;html=1;" edge="1" parent="1" source="9sW0dZSRxw7xnkAIxx0Z-13" target="9sW0dZSRxw7xnkAIxx0Z-15">
          <mxGeometry relative="1" as="geometry" />
        </mxCell>
        <mxCell id="9sW0dZSRxw7xnkAIxx0Z-13" value="Ask for and collect width&lt;br&gt;store in w1" style="shape=parallelogram;perimeter=parallelogramPerimeter;whiteSpace=wrap;html=1;fixedSize=1;" vertex="1" parent="1">
          <mxGeometry x="280" y="129" width="192.5" height="40" as="geometry" />
        </mxCell>
        <mxCell id="9sW0dZSRxw7xnkAIxx0Z-30" value="" style="edgeStyle=orthogonalEdgeStyle;rounded=0;orthogonalLoop=1;jettySize=auto;html=1;" edge="1" parent="1" source="9sW0dZSRxw7xnkAIxx0Z-15" target="9sW0dZSRxw7xnkAIxx0Z-16">
          <mxGeometry relative="1" as="geometry" />
        </mxCell>
        <mxCell id="9sW0dZSRxw7xnkAIxx0Z-15" value="Ask for and collect length&lt;br&gt;store in L2" style="shape=parallelogram;perimeter=parallelogramPerimeter;whiteSpace=wrap;html=1;fixedSize=1;" vertex="1" parent="1">
          <mxGeometry x="280" y="183" width="192.5" height="40" as="geometry" />
        </mxCell>
        <mxCell id="9sW0dZSRxw7xnkAIxx0Z-29" value="" style="edgeStyle=orthogonalEdgeStyle;rounded=0;orthogonalLoop=1;jettySize=auto;html=1;entryX=0.5;entryY=0;entryDx=0;entryDy=0;" edge="1" parent="1" source="9sW0dZSRxw7xnkAIxx0Z-16" target="9sW0dZSRxw7xnkAIxx0Z-23">
          <mxGeometry relative="1" as="geometry" />
        </mxCell>
        <mxCell id="9sW0dZSRxw7xnkAIxx0Z-16" value="Ask for and collect width&lt;br&gt;store in w2" style="shape=parallelogram;perimeter=parallelogramPerimeter;whiteSpace=wrap;html=1;fixedSize=1;" vertex="1" parent="1">
          <mxGeometry x="40" y="183" width="192.5" height="40" as="geometry" />
        </mxCell>
        <mxCell id="9sW0dZSRxw7xnkAIxx0Z-22" value="" style="edgeStyle=orthogonalEdgeStyle;rounded=0;orthogonalLoop=1;jettySize=auto;html=1;" edge="1" parent="1" source="9sW0dZSRxw7xnkAIxx0Z-23" target="9sW0dZSRxw7xnkAIxx0Z-25">
          <mxGeometry relative="1" as="geometry" />
        </mxCell>
        <mxCell id="9sW0dZSRxw7xnkAIxx0Z-23" value="Ask for and collect length&lt;br&gt;store in L3" style="shape=parallelogram;perimeter=parallelogramPerimeter;whiteSpace=wrap;html=1;fixedSize=1;" vertex="1" parent="1">
          <mxGeometry x="40" y="243" width="192.5" height="40" as="geometry" />
        </mxCell>
        <mxCell id="9sW0dZSRxw7xnkAIxx0Z-24" value="" style="edgeStyle=orthogonalEdgeStyle;rounded=0;orthogonalLoop=1;jettySize=auto;html=1;" edge="1" parent="1" source="9sW0dZSRxw7xnkAIxx0Z-25" target="9sW0dZSRxw7xnkAIxx0Z-27">
          <mxGeometry relative="1" as="geometry" />
        </mxCell>
        <mxCell id="9sW0dZSRxw7xnkAIxx0Z-25" value="Ask for and collect width&lt;br&gt;store in w3" style="shape=parallelogram;perimeter=parallelogramPerimeter;whiteSpace=wrap;html=1;fixedSize=1;" vertex="1" parent="1">
          <mxGeometry x="280" y="243" width="192.5" height="40" as="geometry" />
        </mxCell>
        <mxCell id="9sW0dZSRxw7xnkAIxx0Z-26" value="" style="edgeStyle=orthogonalEdgeStyle;rounded=0;orthogonalLoop=1;jettySize=auto;html=1;" edge="1" parent="1" source="9sW0dZSRxw7xnkAIxx0Z-27" target="9sW0dZSRxw7xnkAIxx0Z-28">
          <mxGeometry relative="1" as="geometry" />
        </mxCell>
        <mxCell id="9sW0dZSRxw7xnkAIxx0Z-27" value="Ask for and collect length&lt;br&gt;store in L4" style="shape=parallelogram;perimeter=parallelogramPerimeter;whiteSpace=wrap;html=1;fixedSize=1;" vertex="1" parent="1">
          <mxGeometry x="280" y="303" width="192.5" height="40" as="geometry" />
        </mxCell>
        <mxCell id="9sW0dZSRxw7xnkAIxx0Z-33" value="" style="edgeStyle=orthogonalEdgeStyle;rounded=0;orthogonalLoop=1;jettySize=auto;html=1;" edge="1" parent="1" source="9sW0dZSRxw7xnkAIxx0Z-28" target="9sW0dZSRxw7xnkAIxx0Z-32">
          <mxGeometry relative="1" as="geometry" />
        </mxCell>
        <mxCell id="9sW0dZSRxw7xnkAIxx0Z-28" value="Ask for and collect width&lt;br&gt;store in w4" style="shape=parallelogram;perimeter=parallelogramPerimeter;whiteSpace=wrap;html=1;fixedSize=1;" vertex="1" parent="1">
          <mxGeometry x="40" y="303" width="192.5" height="40" as="geometry" />
        </mxCell>
        <mxCell id="9sW0dZSRxw7xnkAIxx0Z-35" value="" style="edgeStyle=orthogonalEdgeStyle;rounded=0;orthogonalLoop=1;jettySize=auto;html=1;" edge="1" parent="1" source="9sW0dZSRxw7xnkAIxx0Z-32" target="9sW0dZSRxw7xnkAIxx0Z-34">
          <mxGeometry relative="1" as="geometry" />
        </mxCell>
        <mxCell id="9sW0dZSRxw7xnkAIxx0Z-32" value="&lt;font style=&quot;font-size: 18px;&quot; color=&quot;#ff0000&quot;&gt;&lt;b&gt;A&lt;/b&gt;&lt;/font&gt;" style="whiteSpace=wrap;html=1;" vertex="1" parent="1">
          <mxGeometry x="41.25" y="368" width="188.75" height="35" as="geometry" />
        </mxCell>
        <mxCell id="9sW0dZSRxw7xnkAIxx0Z-37" value="" style="edgeStyle=orthogonalEdgeStyle;rounded=0;orthogonalLoop=1;jettySize=auto;html=1;" edge="1" parent="1" source="9sW0dZSRxw7xnkAIxx0Z-34" target="9sW0dZSRxw7xnkAIxx0Z-36">
          <mxGeometry relative="1" as="geometry">
            <Array as="points">
              <mxPoint x="510" y="386" />
              <mxPoint x="510" y="144" />
            </Array>
          </mxGeometry>
        </mxCell>
        <mxCell id="9sW0dZSRxw7xnkAIxx0Z-34" value="Divide total area by 2000" style="whiteSpace=wrap;html=1;" vertex="1" parent="1">
          <mxGeometry x="290" y="361.75" width="160" height="47.5" as="geometry" />
        </mxCell>
        <mxCell id="9sW0dZSRxw7xnkAIxx0Z-45" value="" style="edgeStyle=orthogonalEdgeStyle;rounded=0;orthogonalLoop=1;jettySize=auto;html=1;" edge="1" parent="1" source="9sW0dZSRxw7xnkAIxx0Z-36" target="9sW0dZSRxw7xnkAIxx0Z-39">
          <mxGeometry relative="1" as="geometry">
            <Array as="points">
              <mxPoint x="630" y="144" />
            </Array>
          </mxGeometry>
        </mxCell>
        <mxCell id="9sW0dZSRxw7xnkAIxx0Z-36" value="&lt;font style=&quot;font-size: 18px;&quot; color=&quot;#ff0000&quot;&gt;&lt;b&gt;B&lt;/b&gt;&lt;/font&gt;" style="whiteSpace=wrap;html=1;" vertex="1" parent="1">
          <mxGeometry x="550" y="129" width="70" height="30" as="geometry" />
        </mxCell>
        <mxCell id="9sW0dZSRxw7xnkAIxx0Z-47" value="" style="edgeStyle=orthogonalEdgeStyle;rounded=0;orthogonalLoop=1;jettySize=auto;html=1;" edge="1" parent="1" source="9sW0dZSRxw7xnkAIxx0Z-39" target="9sW0dZSRxw7xnkAIxx0Z-46">
          <mxGeometry relative="1" as="geometry" />
        </mxCell>
        <mxCell id="9sW0dZSRxw7xnkAIxx0Z-39" value="Multiply number of bags x 27" style="whiteSpace=wrap;html=1;" vertex="1" parent="1">
          <mxGeometry x="550" y="169" width="160" height="30" as="geometry" />
        </mxCell>
        <mxCell id="9sW0dZSRxw7xnkAIxx0Z-49" value="" style="edgeStyle=orthogonalEdgeStyle;rounded=0;orthogonalLoop=1;jettySize=auto;html=1;" edge="1" parent="1" source="9sW0dZSRxw7xnkAIxx0Z-46" target="9sW0dZSRxw7xnkAIxx0Z-48">
          <mxGeometry relative="1" as="geometry" />
        </mxCell>
        <mxCell id="9sW0dZSRxw7xnkAIxx0Z-46" value="Divide total area by 2500" style="whiteSpace=wrap;html=1;" vertex="1" parent="1">
          <mxGeometry x="550" y="213" width="160" height="30" as="geometry" />
        </mxCell>
        <mxCell id="9sW0dZSRxw7xnkAIxx0Z-51" value="" style="edgeStyle=orthogonalEdgeStyle;rounded=0;orthogonalLoop=1;jettySize=auto;html=1;" edge="1" parent="1" source="9sW0dZSRxw7xnkAIxx0Z-48" target="9sW0dZSRxw7xnkAIxx0Z-50">
          <mxGeometry relative="1" as="geometry" />
        </mxCell>
        <mxCell id="9sW0dZSRxw7xnkAIxx0Z-48" value="&lt;b style=&quot;border-color: var(--border-color); color: rgb(255, 0, 0);&quot;&gt;&lt;font style=&quot;font-size: 18px;&quot;&gt;C&lt;/font&gt;&lt;/b&gt;" style="whiteSpace=wrap;html=1;" vertex="1" parent="1">
          <mxGeometry x="550" y="258" width="160" height="25" as="geometry" />
        </mxCell>
        <mxCell id="9sW0dZSRxw7xnkAIxx0Z-53" value="" style="edgeStyle=orthogonalEdgeStyle;rounded=0;orthogonalLoop=1;jettySize=auto;html=1;" edge="1" parent="1" source="9sW0dZSRxw7xnkAIxx0Z-50" target="9sW0dZSRxw7xnkAIxx0Z-52">
          <mxGeometry relative="1" as="geometry" />
        </mxCell>
        <mxCell id="9sW0dZSRxw7xnkAIxx0Z-50" value="&lt;font color=&quot;#ff3333&quot; style=&quot;font-size: 18px;&quot;&gt;&lt;b&gt;D&lt;/b&gt;&lt;/font&gt;" style="whiteSpace=wrap;html=1;" vertex="1" parent="1">
          <mxGeometry x="550" y="301" width="160" height="25" as="geometry" />
        </mxCell>
        <mxCell id="9sW0dZSRxw7xnkAIxx0Z-55" value="" style="edgeStyle=orthogonalEdgeStyle;rounded=0;orthogonalLoop=1;jettySize=auto;html=1;" edge="1" parent="1" source="9sW0dZSRxw7xnkAIxx0Z-52" target="9sW0dZSRxw7xnkAIxx0Z-54">
          <mxGeometry relative="1" as="geometry" />
        </mxCell>
        <mxCell id="9sW0dZSRxw7xnkAIxx0Z-52" value="&amp;nbsp; Nitro = unrounded bags x 1&lt;br&gt;&amp;nbsp; Pot = unrounded bags x .125" style="whiteSpace=wrap;html=1;align=left;" vertex="1" parent="1">
          <mxGeometry x="545" y="344" width="170" height="41.25" as="geometry" />
        </mxCell>
        <mxCell id="9sW0dZSRxw7xnkAIxx0Z-54" value="Report All Quantities" style="shape=parallelogram;perimeter=parallelogramPerimeter;whiteSpace=wrap;html=1;fixedSize=1;align=center;size=20;" vertex="1" parent="1">
          <mxGeometry x="545" y="403" width="170" height="30" as="geometry" />
        </mxCell>
      </root>
    </mxGraphModel>
  </diagram>
</mxfile>
